<svg width="32" height="32" viewBox="0 0 32 32" fill="none" xmlns="http://www.w3.org/2000/svg">
  <rect width="32" height="32" rx="6" fill="url(#gradient)"/>
  <path d="M9 22V13H12V22H9ZM10.5 11.5C9.9 11.5 9.4 11.3 9 10.9C8.6 10.5 8.4 10 8.4 9.4C8.4 8.8 8.6 8.3 9 7.9C9.4 7.5 9.9 7.3 10.5 7.3C11.1 7.3 11.6 7.5 12 7.9C12.4 8.3 12.6 8.8 12.6 9.4C12.6 10 12.4 10.5 12 10.9C11.6 11.3 11.1 11.5 10.5 11.5ZM15 22V17C15 15.9 15.4 15 16.5 15C17.6 15 18 15.9 18 17V22H21V16.5C21 14.5 19.8 13 17.5 13C16.3 13 15.3 13.6 14.8 14.5H14.7V13H12V22H15Z" fill="white"/>
  <defs>
    <linearGradient id="gradient" x1="0" y1="0" x2="32" y2="32">
      <stop stop-color="#6366f1"/>
      <stop offset="1" stop-color="#8b5cf6"/>
    </linearGradient>
  </defs>
</svg>